<svg width="28" height="28" viewBox="0 0 28 28" fill="none" xmlns="http://www.w3.org/2000/svg">
<g id="ic/call">
<g id="ic_call_24px">
<mask id="mask0" mask-type="alpha" maskUnits="userSpaceOnUse" x="3" y="3" width="22" height="22">
<path id="Path" fill-rule="evenodd" clip-rule="evenodd" d="M23.345 17.9433C21.91 17.9433 20.5217 17.71 19.2267 17.29C18.8183 17.15 18.3633 17.255 18.0483 17.57L16.2167 19.8683C12.915 18.2933 9.82333 15.3183 8.17833 11.9L10.4533 9.96333C10.7683 9.63667 10.8617 9.18167 10.7333 8.77333C10.3017 7.47833 10.08 6.09 10.08 4.655C10.08 4.025 9.555 3.5 8.925 3.5H4.88833C4.25833 3.5 3.5 3.78 3.5 4.655C3.5 15.4933 12.5183 24.5 23.345 24.5C24.1733 24.5 24.5 23.765 24.5 23.1233V19.0983C24.5 18.4683 23.975 17.9433 23.345 17.9433Z" fill="white"/>
</mask>
<g mask="url(#mask0)">
<g id="c/grey/600 copy">
<rect id="Shape" width="28" height="28" fill="white"/>
</g>
</g>
</g>
</g>
</svg>
